# xmcd
#
# Track frame offsets: 
#        183
#        21513
#        43243
#        60348
#        73138
#        85940
#        105925
#        120425
#        138403
#        154340
#
# Disc length: 2437 seconds
#
# Revision: 3
# Processed by: cddbd v1.5.2PL0 Copyright (c) Steve Scherf et al.
# Submitted via: ExactAudioCopy v1.3
#
DISCID=8409830a
DTITLE=Betty Davis - Nasty Gal
DYEAR=1975
DGENRE=Funk
TTITLE0=Nasty Gal
TTITLE1=Talkin' Trash
TTITLE2=Dedicated To The Press
TTITLE3=You And I
TTITLE4=Feelins
TTITLE5=F.U.N.K.
TTITLE6=Gettin' Kicked Off, Havin' Fun
TTITLE7=Shut Off The Light
TTITLE8=This Is It!
TTITLE9=The Lone Ranger
EXTD=YEAR: 1975
EXTT0=
EXTT1=
EXTT2=
EXTT3=
EXTT4=
EXTT5=
EXTT6=
EXTT7=
EXTT8=
EXTT9=
PLAYORDER=
